<svg width="20" height="20" viewBox="0 0 20 20" fill="none" xmlns="http://www.w3.org/2000/svg">
<g id="Icon/General/Arrow-Right">
<path id="Union" fill-rule="evenodd" clip-rule="evenodd" d="M10.7423 4.35664C10.5062 4.60938 10.507 5.01828 10.7442 5.26994L14.5935 9.35411H3.93955L3.85731 9.36C3.5615 9.40276 3.3335 9.67296 3.3335 9.99991C3.3335 10.3566 3.60484 10.6457 3.93955 10.6457H14.5923L10.7442 14.7298L10.6853 14.8021C10.5088 15.0545 10.5277 15.4133 10.7424 15.6431C10.9786 15.8958 11.3623 15.8966 11.5995 15.645L16.4741 10.4721C16.5875 10.3593 16.6602 10.2006 16.6663 10.0238C16.6724 9.85006 16.6131 9.67418 16.4883 9.54177L11.5994 4.35467L11.5313 4.2923C11.2937 4.10526 10.957 4.12687 10.7423 4.35664Z" fill="#772F5E"/>
</g>
</svg>
