<svg width="20" height="20" viewBox="0 0 20 20" fill="none" xmlns="http://www.w3.org/2000/svg">
<path d="M18.3335 6.04163H13.3335C12.9918 6.04163 12.7085 5.75829 12.7085 5.41663C12.7085 5.07496 12.9918 4.79163 13.3335 4.79163H18.3335C18.6752 4.79163 18.9585 5.07496 18.9585 5.41663C18.9585 5.75829 18.6752 6.04163 18.3335 6.04163Z" fill="white"/>
<path d="M4.99984 6.04163H1.6665C1.32484 6.04163 1.0415 5.75829 1.0415 5.41663C1.0415 5.07496 1.32484 4.79163 1.6665 4.79163H4.99984C5.3415 4.79163 5.62484 5.07496 5.62484 5.41663C5.62484 5.75829 5.3415 6.04163 4.99984 6.04163Z" fill="white"/>
<path d="M8.33317 8.95833C6.38317 8.95833 4.7915 7.36667 4.7915 5.41667C4.7915 3.46667 6.38317 1.875 8.33317 1.875C10.2832 1.875 11.8748 3.46667 11.8748 5.41667C11.8748 7.36667 10.2832 8.95833 8.33317 8.95833ZM8.33317 3.125C7.0665 3.125 6.0415 4.15 6.0415 5.41667C6.0415 6.68333 7.0665 7.70833 8.33317 7.70833C9.59984 7.70833 10.6248 6.68333 10.6248 5.41667C10.6248 4.15 9.59984 3.125 8.33317 3.125Z" fill="white"/>
<path d="M18.3333 15.2084H15C14.6583 15.2084 14.375 14.925 14.375 14.5834C14.375 14.2417 14.6583 13.9584 15 13.9584H18.3333C18.675 13.9584 18.9583 14.2417 18.9583 14.5834C18.9583 14.925 18.675 15.2084 18.3333 15.2084Z" fill="white"/>
<path d="M6.6665 15.2084H1.6665C1.32484 15.2084 1.0415 14.925 1.0415 14.5834C1.0415 14.2417 1.32484 13.9584 1.6665 13.9584H6.6665C7.00817 13.9584 7.2915 14.2417 7.2915 14.5834C7.2915 14.925 7.00817 15.2084 6.6665 15.2084Z" fill="white"/>
<path d="M11.6667 18.125C9.71667 18.125 8.125 16.5333 8.125 14.5833C8.125 12.6333 9.71667 11.0416 11.6667 11.0416C13.6167 11.0416 15.2083 12.6333 15.2083 14.5833C15.2083 16.5333 13.6167 18.125 11.6667 18.125ZM11.6667 12.2916C10.4 12.2916 9.375 13.3166 9.375 14.5833C9.375 15.85 10.4 16.875 11.6667 16.875C12.9333 16.875 13.9583 15.85 13.9583 14.5833C13.9583 13.3166 12.9333 12.2916 11.6667 12.2916Z" fill="white"/>
</svg>
