<svg width="24" height="24" viewBox="0 0 24 24" fill="none" xmlns="http://www.w3.org/2000/svg">
<g id="vuesax/bold/home-2">
<g id="vuesax/bold/home-2_2">
<g id="home-2">
<path id="Vector" d="M20.4702 6.20554L20.4703 6.20564C21.1415 6.67545 21.7063 7.3863 22.1026 8.14547C22.4989 8.90465 22.7602 9.77616 22.7602 10.6001V17.3801C22.7602 20.3443 20.3544 22.7501 17.3902 22.7501H6.61023C3.64391 22.7501 1.24023 20.3322 1.24023 17.3701V10.4701C1.24023 9.69672 1.4784 8.86783 1.83737 8.13877C2.19651 7.40935 2.70854 6.71486 3.3188 6.23881C3.31885 6.23877 3.31891 6.23872 3.31896 6.23868L8.3288 2.32881L8.33086 2.3272L8.33087 2.3272C10.1006 0.955981 12.871 0.887194 14.7102 2.17554L20.4702 6.20554ZM20.4702 6.20554L14.7106 2.17582L20.4702 6.20554Z" stroke="#D9D9D9" stroke-width="1.5"/>
</g>
</g>
</g>
</svg>
